<svg class="animated" id="freepik_stories-opened" xmlns="http://www.w3.org/2000/svg" viewBox="0 0 500 500" version="1.1" xmlns:xlink="http://www.w3.org/1999/xlink" xmlns:svgjs="http://svgjs.com/svgjs"><style>svg#freepik_stories-opened:not(.animated) .animable {opacity: 0;}svg#freepik_stories-opened.animated #freepik--background-simple--inject-138 {animation: 1s 1 forwards cubic-bezier(.36,-0.01,.5,1.38) slideDown;animation-delay: 0s;}svg#freepik_stories-opened.animated #freepik--Store--inject-138 {animation: 1s 1 forwards cubic-bezier(.36,-0.01,.5,1.38) fadeIn;animation-delay: 0s;}svg#freepik_stories-opened.animated #freepik--Ground--inject-138 {animation: 1s 1 forwards cubic-bezier(.36,-0.01,.5,1.38) slideDown;animation-delay: 0s;}svg#freepik_stories-opened.animated #el82hime7y16h {animation: 1s 1 forwards cubic-bezier(.36,-0.01,.5,1.38) slideRight;animation-delay: 0s;}svg#freepik_stories-opened.animated #elpmfbho4n3bl {animation: 1s 1 forwards cubic-bezier(.36,-0.01,.5,1.38) slideRight;animation-delay: 0.016666666666666666s;opacity: 0}svg#freepik_stories-opened.animated #eldr5g5viw2yw {animation: 1s 1 forwards cubic-bezier(.36,-0.01,.5,1.38) slideRight;animation-delay: 0.03333333333333333s;opacity: 0}svg#freepik_stories-opened.animated #elrej2uslubwc {animation: 1s 1 forwards cubic-bezier(.36,-0.01,.5,1.38) slideRight;animation-delay: 0.05s;opacity: 0}svg#freepik_stories-opened.animated #elbjaw1pz6ulk {animation: 1s 1 forwards cubic-bezier(.36,-0.01,.5,1.38) slideRight;animation-delay: 0.06666666666666667s;opacity: 0}svg#freepik_stories-opened.animated #el7bgk8hnpna {animation: 1s 1 forwards cubic-bezier(.36,-0.01,.5,1.38) slideRight;animation-delay: 0.08333333333333333s;opacity: 0}svg#freepik_stories-opened.animated #el40bugreq6ri {animation: 1s 1 forwards cubic-bezier(.36,-0.01,.5,1.38) slideRight;animation-delay: 0.1s;opacity: 0}svg#freepik_stories-opened.animated #elbqkpzjx2dr6 {animation: 1s 1 forwards cubic-bezier(.36,-0.01,.5,1.38) slideRight;animation-delay: 0.11666666666666667s;opacity: 0}svg#freepik_stories-opened.animated #elua35j4ive8 {animation: 1s 1 forwards cubic-bezier(.36,-0.01,.5,1.38) slideRight;animation-delay: 0.13333333333333333s;opacity: 0}svg#freepik_stories-opened.animated #eldars7dvxoz {animation: 1s 1 forwards cubic-bezier(.36,-0.01,.5,1.38) slideRight;animation-delay: 0.15s;opacity: 0}svg#freepik_stories-opened.animated #el64hf7pxymds {animation: 1s 1 forwards cubic-bezier(.36,-0.01,.5,1.38) slideRight;animation-delay: 0.16666666666666666s;opacity: 0}svg#freepik_stories-opened.animated #elz96sirorrq {animation: 1s 1 forwards cubic-bezier(.36,-0.01,.5,1.38) slideRight;animation-delay: 0.18333333333333332s;opacity: 0}svg#freepik_stories-opened.animated #elu8cffw3alod {animation: 1s 1 forwards cubic-bezier(.36,-0.01,.5,1.38) slideRight;animation-delay: 0.2s;opacity: 0}svg#freepik_stories-opened.animated #ellx73dic4ik {animation: 1s 1 forwards cubic-bezier(.36,-0.01,.5,1.38) slideRight;animation-delay: 0.21666666666666667s;opacity: 0}svg#freepik_stories-opened.animated #el89n1k94fc13 {animation: 1s 1 forwards cubic-bezier(.36,-0.01,.5,1.38) slideRight;animation-delay: 0.23333333333333334s;opacity: 0}svg#freepik_stories-opened.animated #ele86imf0ua2 {animation: 1s 1 forwards cubic-bezier(.36,-0.01,.5,1.38) slideRight;animation-delay: 0.25s;opacity: 0}svg#freepik_stories-opened.animated #elaoyq4nigjlq {animation: 1s 1 forwards cubic-bezier(.36,-0.01,.5,1.38) slideRight;animation-delay: 0.26666666666666666s;opacity: 0}svg#freepik_stories-opened.animated #elu2dsqxebqqk {animation: 1s 1 forwards cubic-bezier(.36,-0.01,.5,1.38) slideRight;animation-delay: 0.2833333333333333s;opacity: 0}svg#freepik_stories-opened.animated #elnjql7ngukag {animation: 1s 1 forwards cubic-bezier(.36,-0.01,.5,1.38) slideRight;animation-delay: 0.3s;opacity: 0}svg#freepik_stories-opened.animated #el5xmdixih00q {animation: 1s 1 forwards cubic-bezier(.36,-0.01,.5,1.38) slideRight;animation-delay: 0.31666666666666665s;opacity: 0}svg#freepik_stories-opened.animated #elu5tig0l65d {animation: 1s 1 forwards cubic-bezier(.36,-0.01,.5,1.38) slideRight;animation-delay: 0.3333333333333333s;opacity: 0}svg#freepik_stories-opened.animated #elfsj156gp7in {animation: 1s 1 forwards cubic-bezier(.36,-0.01,.5,1.38) slideRight;animation-delay: 0.35s;opacity: 0}svg#freepik_stories-opened.animated #elwxi252l390j {animation: 1s 1 forwards cubic-bezier(.36,-0.01,.5,1.38) slideRight;animation-delay: 0.36666666666666664s;opacity: 0}svg#freepik_stories-opened.animated #elaivnkxvp7fn {animation: 1s 1 forwards cubic-bezier(.36,-0.01,.5,1.38) slideRight;animation-delay: 0.3833333333333333s;opacity: 0}svg#freepik_stories-opened.animated #elbowl8mofzs {animation: 1s 1 forwards cubic-bezier(.36,-0.01,.5,1.38) slideRight;animation-delay: 0.4s;opacity: 0}svg#freepik_stories-opened.animated #elaetpcw4vd1w {animation: 1s 1 forwards cubic-bezier(.36,-0.01,.5,1.38) slideRight;animation-delay: 0.4166666666666667s;opacity: 0}svg#freepik_stories-opened.animated #ely6wq8k1118 {animation: 1s 1 forwards cubic-bezier(.36,-0.01,.5,1.38) slideRight;animation-delay: 0.43333333333333335s;opacity: 0}svg#freepik_stories-opened.animated #eli3buplzadhn {animation: 1s 1 forwards cubic-bezier(.36,-0.01,.5,1.38) slideRight;animation-delay: 0.45s;opacity: 0}svg#freepik_stories-opened.animated #el23nmabjqsz6 {animation: 1s 1 forwards cubic-bezier(.36,-0.01,.5,1.38) slideRight;animation-delay: 0.4666666666666667s;opacity: 0}svg#freepik_stories-opened.animated #elazkqz4czdt5 {animation: 1s 1 forwards cubic-bezier(.36,-0.01,.5,1.38) slideRight;animation-delay: 0.48333333333333334s;opacity: 0}svg#freepik_stories-opened.animated #elxolpfld3xpe {animation: 1s 1 forwards cubic-bezier(.36,-0.01,.5,1.38) slideRight;animation-delay: 0.5s;opacity: 0}svg#freepik_stories-opened.animated #elz8mr2efo42 {animation: 1s 1 forwards cubic-bezier(.36,-0.01,.5,1.38) slideRight;animation-delay: 0.5166666666666666s;opacity: 0}svg#freepik_stories-opened.animated #el4dkmc49nusj {animation: 1s 1 forwards cubic-bezier(.36,-0.01,.5,1.38) slideRight;animation-delay: 0.5333333333333333s;opacity: 0}svg#freepik_stories-opened.animated #el0auvg9jtf37p {animation: 1s 1 forwards cubic-bezier(.36,-0.01,.5,1.38) slideRight;animation-delay: 0.55s;opacity: 0}svg#freepik_stories-opened.animated #elct1hz090dop {animation: 1s 1 forwards cubic-bezier(.36,-0.01,.5,1.38) slideRight;animation-delay: 0.5666666666666667s;opacity: 0}svg#freepik_stories-opened.animated #ely0qvdmlkpc {animation: 1s 1 forwards cubic-bezier(.36,-0.01,.5,1.38) slideRight;animation-delay: 0.5833333333333334s;opacity: 0}svg#freepik_stories-opened.animated #el4gzp9mys8yn {animation: 1s 1 forwards cubic-bezier(.36,-0.01,.5,1.38) slideRight;animation-delay: 0.6s;opacity: 0}svg#freepik_stories-opened.animated #elebtjaqyk1do {animation: 1s 1 forwards cubic-bezier(.36,-0.01,.5,1.38) slideRight;animation-delay: 0.6166666666666667s;opacity: 0}svg#freepik_stories-opened.animated #el1i22wlt7jl7 {animation: 1s 1 forwards cubic-bezier(.36,-0.01,.5,1.38) slideRight;animation-delay: 0.6333333333333333s;opacity: 0}svg#freepik_stories-opened.animated #ellzz28o4wxjr {animation: 1s 1 forwards cubic-bezier(.36,-0.01,.5,1.38) slideRight;animation-delay: 0.65s;opacity: 0}svg#freepik_stories-opened.animated #el5z23axvs99 {animation: 1s 1 forwards cubic-bezier(.36,-0.01,.5,1.38) slideRight;animation-delay: 0.6666666666666666s;opacity: 0}svg#freepik_stories-opened.animated #elon7xw8ba94t {animation: 1s 1 forwards cubic-bezier(.36,-0.01,.5,1.38) slideRight;animation-delay: 0.6833333333333333s;opacity: 0}svg#freepik_stories-opened.animated #elnuj5z4zs5io {animation: 1s 1 forwards cubic-bezier(.36,-0.01,.5,1.38) slideRight;animation-delay: 0.7s;opacity: 0}svg#freepik_stories-opened.animated #el6b6h3wa6d0d {animation: 1s 1 forwards cubic-bezier(.36,-0.01,.5,1.38) slideRight;animation-delay: 0.7166666666666667s;opacity: 0}svg#freepik_stories-opened.animated #el7dwfew7dt9j {animation: 1s 1 forwards cubic-bezier(.36,-0.01,.5,1.38) slideRight;animation-delay: 0.7333333333333333s;opacity: 0}svg#freepik_stories-opened.animated #elsdnwo0c1sq {animation: 1s 1 forwards cubic-bezier(.36,-0.01,.5,1.38) slideRight;animation-delay: 0.75s;opacity: 0}svg#freepik_stories-opened.animated #elzot3h7fo02n {animation: 1s 1 forwards cubic-bezier(.36,-0.01,.5,1.38) slideRight;animation-delay: 0.7666666666666666s;opacity: 0}svg#freepik_stories-opened.animated #eld1rzywamu6f {animation: 1s 1 forwards cubic-bezier(.36,-0.01,.5,1.38) slideRight;animation-delay: 0.7833333333333333s;opacity: 0}svg#freepik_stories-opened.animated #eluv68q9b5lp9 {animation: 1s 1 forwards cubic-bezier(.36,-0.01,.5,1.38) slideRight;animation-delay: 0.8s;opacity: 0}svg#freepik_stories-opened.animated #elaieboaz1ic {animation: 1s 1 forwards cubic-bezier(.36,-0.01,.5,1.38) slideRight;animation-delay: 0.8166666666666667s;opacity: 0}svg#freepik_stories-opened.animated #el4vqv8eq9rci {animation: 1s 1 forwards cubic-bezier(.36,-0.01,.5,1.38) slideRight;animation-delay: 0.8333333333333334s;opacity: 0}svg#freepik_stories-opened.animated #elne27fc8o5e7 {animation: 1s 1 forwards cubic-bezier(.36,-0.01,.5,1.38) slideRight;animation-delay: 0.85s;opacity: 0}svg#freepik_stories-opened.animated #el4c7ag26aakw {animation: 1s 1 forwards cubic-bezier(.36,-0.01,.5,1.38) slideRight;animation-delay: 0.8666666666666667s;opacity: 0}svg#freepik_stories-opened.animated #ely09q7hdq7up {animation: 1s 1 forwards cubic-bezier(.36,-0.01,.5,1.38) slideRight;animation-delay: 0.8833333333333333s;opacity: 0}svg#freepik_stories-opened.animated #elt2j0kdzhifb {animation: 1s 1 forwards cubic-bezier(.36,-0.01,.5,1.38) slideRight;animation-delay: 0.9s;opacity: 0}svg#freepik_stories-opened.animated #elsoonp1zr5sa {animation: 1s 1 forwards cubic-bezier(.36,-0.01,.5,1.38) slideRight;animation-delay: 0.9166666666666666s;opacity: 0}svg#freepik_stories-opened.animated #elvq5qpenjuhm {animation: 1s 1 forwards cubic-bezier(.36,-0.01,.5,1.38) slideRight;animation-delay: 0.9333333333333333s;opacity: 0}svg#freepik_stories-opened.animated #el80f6lx0u02a {animation: 1s 1 forwards cubic-bezier(.36,-0.01,.5,1.38) slideRight;animation-delay: 0.95s;opacity: 0}svg#freepik_stories-opened.animated #elq87zvh59iq {animation: 1s 1 forwards cubic-bezier(.36,-0.01,.5,1.38) slideRight;animation-delay: 0.9666666666666667s;opacity: 0}svg#freepik_stories-opened.animated #elb426jggqjm4 {animation: 1s 1 forwards cubic-bezier(.36,-0.01,.5,1.38) slideRight;animation-delay: 0.9833333333333333s;opacity: 0}svg#freepik_stories-opened.animated #freepik--Plants--inject-138 {animation: 1s 1 forwards cubic-bezier(.36,-0.01,.5,1.38) slideRight;animation-delay: 0s;}            @keyframes slideDown {                0% {                    opacity: 0;                    transform: translateY(-30px);                }                100% {                    opacity: 1;                    transform: translateY(0);                }            }                    @keyframes fadeIn {                0% {                    opacity: 0;                }                100% {                    opacity: 1;                }            }                    @keyframes slideRight {                0% {                    opacity: 0;                    transform: translateX(30px);                }                100% {                    opacity: 1;                    transform: translateX(0);                }            }        </style><g id="freepik--background-simple--inject-138" class="animable" style="transform-origin: 245.014px 246.223px;"><path d="M426.53,388.05s29.63-69.62,16.29-158.5c-4.55-30.39-13.94-63.25-36.28-86.07-31-31.7-83.42-47.34-126.28-34.7-38.17,11.24-64.76,41.26-96.68,63-34.81,23.7-68.14,5.93-108.88,40.74s-32.59,97-23.7,119.25,21,44.82,56.45,54.63Z" style="fill: #008EC2; transform-origin: 245.014px 246.223px;" id="elt9wk1fh9vp" class="animable"></path><g id="elslh1jkqfpy"><path d="M426.53,388.05s29.63-69.62,16.29-158.5c-4.55-30.39-13.94-63.25-36.28-86.07-31-31.7-83.42-47.34-126.28-34.7-38.17,11.24-64.76,41.26-96.68,63-34.81,23.7-68.14,5.93-108.88,40.74s-32.59,97-23.7,119.25,21,44.82,56.45,54.63Z" style="fill: rgb(255, 255, 255); opacity: 0.7; transform-origin: 245.014px 246.223px;" class="animable" id="elmlxoah0iie"></path></g></g><g id="freepik--Store--inject-138" class="animable" style="transform-origin: 254.153px 262.545px;"><rect x="107.45" y="188.34" width="292.5" height="198.05" style="fill: rgb(255, 255, 255); stroke: rgb(38, 50, 56); stroke-linecap: round; stroke-linejoin: round; transform-origin: 253.7px 287.365px;" id="ele6q5ud3jm9k" class="animable"></rect><rect x="298.12" y="194.07" width="98.76" height="162.29" style="fill: rgb(255, 255, 255); stroke: rgb(38, 50, 56); stroke-linecap: round; stroke-linejoin: round; transform-origin: 347.5px 275.215px;" id="el728ly9c1nb7" class="animable"></rect><rect x="110.62" y="194.07" width="98.76" height="162.29" style="fill: rgb(255, 255, 255); stroke: rgb(38, 50, 56); stroke-linecap: round; stroke-linejoin: round; transform-origin: 160px 275.215px;" id="elxolvujatta" class="animable"></rect><polygon points="396.88 246.5 298.12 281 298.12 194.06 396.88 194.06 396.88 246.5" style="fill: rgb(38, 50, 56); stroke: rgb(38, 50, 56); stroke-linecap: round; stroke-linejoin: round; transform-origin: 347.5px 237.53px;" id="elw9zjcq6v1x" class="animable"></polygon><polygon points="209.38 246.5 110.62 287.5 110.62 194.06 209.38 194.06 209.38 246.5" style="fill: rgb(38, 50, 56); stroke: rgb(38, 50, 56); stroke-linecap: round; stroke-linejoin: round; transform-origin: 160px 240.78px;" id="elw377rwvxgva" class="animable"></polygon><rect x="213.33" y="188.34" width="80.74" height="198.05" style="fill: #008EC2; stroke: rgb(38, 50, 56); stroke-linecap: round; stroke-linejoin: round; transform-origin: 253.7px 287.365px;" id="el2giasdkvg0h" class="animable"></rect><path d="M217.9,296.5h71.6v82.41H217.9Zm0-100.69v82.41h71.6V195.81Z" style="fill: rgb(255, 255, 255); stroke: rgb(38, 50, 56); stroke-linecap: round; stroke-linejoin: round; transform-origin: 253.7px 287.36px;" id="elgcudtwsxvnn" class="animable"></path><polygon points="289.5 369.51 289.5 359.36 239.2 378.91 264.91 378.91 289.5 369.51" style="fill: rgb(38, 50, 56); transform-origin: 264.35px 369.135px;" id="elzvu1ty3eer" class="animable"></polygon><polygon points="217.9 254.28 289.5 223.03 289.5 195.81 217.9 195.81 217.9 254.28" style="fill: rgb(38, 50, 56); transform-origin: 253.7px 225.045px;" id="el58dyia7dtar" class="animable"></polygon><polygon points="260.72 278.22 289.5 267.22 289.5 258.12 237.78 278.22 260.72 278.22" style="fill: rgb(38, 50, 56); transform-origin: 263.64px 268.17px;" id="el6pe58qr8cl7" class="animable"></polygon><polygon points="217.9 366.77 289.5 337.4 289.5 296.5 217.9 296.5 217.9 366.77" style="fill: rgb(38, 50, 56); transform-origin: 253.7px 331.635px;" id="elgom313wi8zo" class="animable"></polygon><polygon points="405 192.11 103.37 192.11 133.53 138.7 374.84 138.7 405 192.11" style="fill: #008EC2; stroke: rgb(38, 50, 56); stroke-linecap: round; stroke-linejoin: round; transform-origin: 254.185px 165.405px;" id="elgq6u2pvze4" class="animable"></polygon><path d="M103.37,192.25c0,.37-.06.74-.06,1.11a16.72,16.72,0,1,0,33.43,0c0-.37,0-.74-.05-1.11Z" style="fill: rgb(255, 255, 255); stroke: rgb(38, 50, 56); stroke-linecap: round; stroke-linejoin: round; transform-origin: 120.025px 201.369px;" id="elszvmmm4lp8m" class="animable"></path><path d="M136.87,192.25c0,.37-.06.74-.06,1.11a16.72,16.72,0,1,0,33.43,0c0-.37,0-.74-.05-1.11Z" style="fill: #008EC2; stroke: rgb(38, 50, 56); stroke-linecap: round; stroke-linejoin: round; transform-origin: 153.525px 201.37px;" id="elwzi39qisz48" class="animable"></path><path d="M170.37,192.25c0,.37-.06.74-.06,1.11a16.72,16.72,0,1,0,33.43,0c0-.37,0-.74-.05-1.11Z" style="fill: rgb(255, 255, 255); stroke: rgb(38, 50, 56); stroke-linecap: round; stroke-linejoin: round; transform-origin: 187.025px 201.37px;" id="eltboj3yv1upg" class="animable"></path><path d="M203.87,192.25c0,.37-.06.74-.06,1.11a16.72,16.72,0,1,0,33.43,0c0-.37,0-.74-.05-1.11Z" style="fill: #008EC2; stroke: rgb(38, 50, 56); stroke-linecap: round; stroke-linejoin: round; transform-origin: 220.525px 201.37px;" id="elrfa5bz04zm" class="animable"></path><path d="M237.37,192.25c0,.37-.06.74-.06,1.11a16.72,16.72,0,1,0,33.43,0c0-.37,0-.74-.05-1.11Z" style="fill: rgb(255, 255, 255); stroke: rgb(38, 50, 56); stroke-linecap: round; stroke-linejoin: round; transform-origin: 254.025px 201.37px;" id="el9m4o0kyb1o5" class="animable"></path><path d="M270.87,192.25c0,.37-.06.74-.06,1.11a16.72,16.72,0,1,0,33.43,0c0-.37,0-.74-.05-1.11Z" style="fill: #008EC2; stroke: rgb(38, 50, 56); stroke-linecap: round; stroke-linejoin: round; transform-origin: 287.525px 201.37px;" id="elgn9oygicxlk" class="animable"></path><path d="M304.37,192.25c0,.37-.06.74-.06,1.11a16.72,16.72,0,1,0,33.43,0c0-.37,0-.74-.05-1.11Z" style="fill: rgb(255, 255, 255); stroke: rgb(38, 50, 56); stroke-linecap: round; stroke-linejoin: round; transform-origin: 321.025px 201.37px;" id="elokrumd3cee" class="animable"></path><path d="M337.87,192.25c0,.37-.06.74-.06,1.11a16.72,16.72,0,1,0,33.43,0c0-.37,0-.74-.05-1.11Z" style="fill: #008EC2; stroke: rgb(38, 50, 56); stroke-linecap: round; stroke-linejoin: round; transform-origin: 354.525px 201.37px;" id="elb2h0z5o1nc7" class="animable"></path><path d="M371.37,192.25c0,.37-.06.74-.06,1.11a16.72,16.72,0,1,0,33.43,0c0-.37,0-.74-.05-1.11Z" style="fill: rgb(255, 255, 255); stroke: rgb(38, 50, 56); stroke-linecap: round; stroke-linejoin: round; transform-origin: 388.025px 201.37px;" id="elbwa6kolvpof" class="animable"></path><polyline points="229.63 232.78 253.78 219.78 277.77 232.78" style="fill: none; stroke: rgb(255, 255, 255); stroke-linecap: round; stroke-linejoin: round; transform-origin: 253.7px 226.28px;" id="eltsi6gvjm2hs" class="animable"></polyline><path d="M256.14,219.78a2.36,2.36,0,1,0-2.36,2.36A2.36,2.36,0,0,0,256.14,219.78Z" style="fill: rgb(255, 255, 255); stroke: rgb(38, 50, 56); stroke-linecap: round; stroke-linejoin: round; transform-origin: 253.78px 219.78px;" id="el59rewmu6834" class="animable"></path><rect x="229.63" y="232.78" width="48.14" height="23.82" style="fill: #008EC2; stroke: rgb(38, 50, 56); stroke-linecap: round; stroke-linejoin: round; transform-origin: 253.7px 244.69px;" id="elzm3dvrsceef" class="animable"></rect><text transform="translate(232.11 248.1)" style="font-size:10.227350234985352px;fill:#263238;font-family:ChunkFive-Roman, ChunkFive">OPENED</text><circle cx="286.58" cy="288.48" r="4.9" style="fill: rgb(255, 255, 255); stroke: rgb(38, 50, 56); stroke-linecap: round; stroke-linejoin: round; transform-origin: 286.58px 288.48px;" id="elg9cwrp48qgp" class="animable"></circle><circle cx="286.58" cy="288.48" r="1.25" style="fill: rgb(255, 255, 255); stroke: rgb(38, 50, 56); stroke-linecap: round; stroke-linejoin: round; transform-origin: 286.58px 288.48px;" id="elhjoj4w2webp" class="animable"></circle></g><g id="freepik--Ground--inject-138" class="animable" style="transform-origin: 253.665px 388.335px;"><path d="M435,391.67H72.36A3.34,3.34,0,0,1,69,388.33h0A3.33,3.33,0,0,1,72.36,385H435a3.33,3.33,0,0,1,3.33,3.33h0A3.34,3.34,0,0,1,435,391.67Z" style="fill: rgb(38, 50, 56); transform-origin: 253.665px 388.335px;" id="elae27fipm0cv" class="animable"></path></g><g id="freepik--Plants--inject-138" class="animable animator-active" style="transform-origin: 255.71px 307.398px;"><path d="M127.42,232.57v6.74h-2.11v-7.39a3.16,3.16,0,0,0-3.16-3.17h0a3.17,3.17,0,0,0-3.17,3.17v9.18h-2v-4.87a2.28,2.28,0,0,0-2.27-2.28h0a2.28,2.28,0,0,0-2.28,2.28v7.47h0a1.47,1.47,0,0,0,1.47,1.46h5v5.52h6.33v-7.15h4.39a1.78,1.78,0,0,0,1.78-1.78h0v-9.18a2,2,0,0,0-2-2h0A2,2,0,0,0,127.42,232.57Z" style="fill: #008EC2; transform-origin: 121.915px 239.715px;" id="el82hime7y16h" class="animable"></path><rect x="116.65" y="250.24" width="11.13" height="10.32" style="fill: rgb(255, 255, 255); stroke: rgb(38, 50, 56); stroke-linecap: round; stroke-linejoin: round; transform-origin: 122.215px 255.4px;" id="elpmfbho4n3bl" class="animable"></rect><rect x="115.98" y="247.79" width="12.45" height="3.32" style="fill: rgb(255, 255, 255); stroke: rgb(38, 50, 56); stroke-linecap: round; stroke-linejoin: round; transform-origin: 122.205px 249.45px;" id="eldr5g5viw2yw" class="animable"></rect><polygon points="124.28 288.57 120.22 282.08 122.93 282.35 122.66 278.56 125.64 282.35 125.91 270.71 128.07 278.29 130.78 268.54 131.59 279.91 137.01 274.23 133.22 283.16 137.01 281.81 129.7 289.93 124.28 288.57" style="fill: #008EC2; transform-origin: 128.615px 279.235px;" id="elrej2uslubwc" class="animable"></polygon><rect x="122.21" y="289.45" width="11.13" height="10.32" style="fill: rgb(255, 255, 255); stroke: rgb(38, 50, 56); stroke-linecap: round; stroke-linejoin: round; transform-origin: 127.775px 294.61px;" id="elbjaw1pz6ulk" class="animable"></rect><rect x="121.55" y="287.01" width="12.45" height="3.32" style="fill: rgb(255, 255, 255); stroke: rgb(38, 50, 56); stroke-linecap: round; stroke-linejoin: round; transform-origin: 127.775px 288.67px;" id="el7bgk8hnpna" class="animable"></rect><polygon points="181.94 288.57 177.88 282.08 180.58 282.35 180.31 278.56 183.29 282.35 183.56 270.71 185.72 278.29 188.43 268.54 189.24 279.91 194.66 274.23 190.87 283.16 194.66 281.81 187.35 289.93 181.94 288.57" style="fill: #008EC2; transform-origin: 186.27px 279.235px;" id="el40bugreq6ri" class="animable"></polygon><rect x="179.86" y="289.45" width="11.13" height="10.32" style="fill: rgb(255, 255, 255); stroke: rgb(38, 50, 56); stroke-linecap: round; stroke-linejoin: round; transform-origin: 185.425px 294.61px;" id="elbqkpzjx2dr6" class="animable"></rect><rect x="179.2" y="287.01" width="12.45" height="3.32" style="fill: rgb(255, 255, 255); stroke: rgb(38, 50, 56); stroke-linecap: round; stroke-linejoin: round; transform-origin: 185.425px 288.67px;" id="elua35j4ive8" class="animable"></rect><path d="M153.79,287.22a35.93,35.93,0,0,1-5.69-.54c-3-.54-3.52-2.44-2.16-3s5.95.27,5.95.27-5.95,0-6.76-3.52,2.16-3.25,3-2.43,3,2.43,3,2.43-4.6-4.6-4.6-7.31,3-2.43,3.79-.81,2.71,6.5,2.71,6.5-3-8.66.81-7.31,3,5.41,3,6.23v3.51s3.79-7.3,5.15-5.68-1.9,4.6-1.9,4.6,1.9-7,6.5-6.77.27,3.52-.54,4.88-4.33,4.33-4.33,4.33,7.85-3.52,11.63-3.52.28,4.33-1.89,4.6-6.23.81-6.23.81,5.42,2.44,3.25,3-7.58-.54-7.58-.54Z" style="fill: #008EC2; transform-origin: 160.008px 279.367px;" id="eldars7dvxoz" class="animable"></path><rect x="151.44" y="289.45" width="11.13" height="10.32" style="fill: rgb(255, 255, 255); stroke: rgb(38, 50, 56); stroke-linecap: round; stroke-linejoin: round; transform-origin: 157.005px 294.61px;" id="el64hf7pxymds" class="animable"></rect><rect x="150.78" y="287.01" width="12.45" height="3.32" style="fill: rgb(255, 255, 255); stroke: rgb(38, 50, 56); stroke-linecap: round; stroke-linejoin: round; transform-origin: 157.005px 288.67px;" id="elz96sirorrq" class="animable"></rect><path d="M170.54,237.27v5h1.56v-5.48a2.35,2.35,0,0,1,2.35-2.34h0a2.34,2.34,0,0,1,2.34,2.34v6.8h1.45V240a1.68,1.68,0,0,1,1.68-1.68h0a1.69,1.69,0,0,1,1.69,1.68v5.54h0a1.09,1.09,0,0,1-1.09,1.08h-3.73v4.09H172.1v-5.29h-3.25a1.33,1.33,0,0,1-1.32-1.33h0v-6.79a1.51,1.51,0,0,1,1.5-1.51h0A1.52,1.52,0,0,1,170.54,237.27Z" style="fill: #008EC2; transform-origin: 174.57px 242.58px;" id="elu8cffw3alod" class="animable"></path><rect x="168.37" y="250.24" width="11.13" height="10.32" style="fill: rgb(255, 255, 255); stroke: rgb(38, 50, 56); stroke-linecap: round; stroke-linejoin: round; transform-origin: 173.935px 255.4px;" id="ellx73dic4ik" class="animable"></rect><rect x="167.7" y="247.79" width="12.45" height="3.32" style="fill: rgb(255, 255, 255); stroke: rgb(38, 50, 56); stroke-linecap: round; stroke-linejoin: round; transform-origin: 173.925px 249.45px;" id="el89n1k94fc13" class="animable"></rect><path d="M127.57,315.81v5h1.56v-5.48a2.34,2.34,0,0,1,2.34-2.34h0a2.35,2.35,0,0,1,2.35,2.34v6.8h1.44v-3.61a1.69,1.69,0,0,1,1.69-1.68h0a1.68,1.68,0,0,1,1.68,1.68v5.53h0a1.08,1.08,0,0,1-1.08,1.09h-3.73v4.09h-4.69v-5.3h-3.25a1.32,1.32,0,0,1-1.32-1.32h0v-6.8a1.5,1.5,0,0,1,1.5-1.5h0A1.51,1.51,0,0,1,127.57,315.81Z" style="fill: #008EC2; transform-origin: 131.595px 321.11px;" id="ele86imf0ua2" class="animable"></path><rect x="125.39" y="328.78" width="11.13" height="10.32" style="fill: rgb(255, 255, 255); stroke: rgb(38, 50, 56); stroke-linecap: round; stroke-linejoin: round; transform-origin: 130.955px 333.94px;" id="elaoyq4nigjlq" class="animable"></rect><rect x="124.73" y="326.34" width="12.45" height="3.32" style="fill: rgb(255, 255, 255); stroke: rgb(38, 50, 56); stroke-linecap: round; stroke-linejoin: round; transform-origin: 130.955px 328px;" id="elu2dsqxebqqk" class="animable"></rect><path d="M182.76,315.81v5h1.57v-5.48a2.34,2.34,0,0,1,2.34-2.34h0a2.35,2.35,0,0,1,2.35,2.34v6.8h1.44v-3.61a1.69,1.69,0,0,1,1.69-1.68h0a1.68,1.68,0,0,1,1.68,1.68v5.53h0a1.08,1.08,0,0,1-1.08,1.09H189v4.09h-4.69v-5.3h-3.25a1.32,1.32,0,0,1-1.32-1.32h0v-6.8a1.5,1.5,0,0,1,1.5-1.5h0A1.5,1.5,0,0,1,182.76,315.81Z" style="fill: #008EC2; transform-origin: 186.785px 321.11px;" id="elnjql7ngukag" class="animable"></path><rect x="180.59" y="328.78" width="11.13" height="10.32" style="fill: rgb(255, 255, 255); stroke: rgb(38, 50, 56); stroke-linecap: round; stroke-linejoin: round; transform-origin: 186.155px 333.94px;" id="el5xmdixih00q" class="animable"></rect><rect x="179.93" y="326.34" width="12.45" height="3.32" style="fill: rgb(255, 255, 255); stroke: rgb(38, 50, 56); stroke-linecap: round; stroke-linejoin: round; transform-origin: 186.155px 328px;" id="elu5tig0l65d" class="animable"></rect><path d="M154.46,328.57a19.5,19.5,0,0,0-3.88-4.58c-2.46-2.12-3.17-7.05-3.17-7.05s1.06-.35,3.17,1.76a22,22,0,0,1,3.52,4.93,59.8,59.8,0,0,1-1.41-8.1c0-2.11,3.53-7.39,3.53-7.39a32.21,32.21,0,0,1,1.05,5.63v8.1a25.82,25.82,0,0,1,4.94-6.69,19.51,19.51,0,0,1,7-3.52s.35,4.23-1.06,5.63-7.39,6.34-7.39,6.34l8.1-1.4-8.1,4.93s-1.52,2-2.82,1.41A6.81,6.81,0,0,0,154.46,328.57Z" style="fill: #008EC2; transform-origin: 158.329px 318.409px;" id="elfsj156gp7in" class="animable"></path><rect x="151.11" y="328.78" width="11.13" height="10.32" style="fill: rgb(255, 255, 255); stroke: rgb(38, 50, 56); stroke-linecap: round; stroke-linejoin: round; transform-origin: 156.675px 333.94px;" id="elwxi252l390j" class="animable"></rect><rect x="150.45" y="326.34" width="12.45" height="3.32" style="fill: rgb(255, 255, 255); stroke: rgb(38, 50, 56); stroke-linecap: round; stroke-linejoin: round; transform-origin: 156.675px 328px;" id="elaivnkxvp7fn" class="animable"></rect><path d="M189.24,248s-3.51-3-4.6-4.06-3.79-4.06-1.62-3a34.45,34.45,0,0,1,4.6,3s-1.89-5.68-1.89-7.31,2.7-.54,4.06,2.17,2.16,4.6,2.16,4.6-2.44-10.83-.27-11.37,2.71,7,2.71,7,1.89-13.26,4.6-10.29-1.9,10.83-1.9,10.83,5.42-3.79,4.33-.81a7.36,7.36,0,0,1-4.06,4.06s7.85-1.9,5.69,1.08-9.2,5.42-9.2,5.42Z" style="fill: #008EC2; transform-origin: 192.813px 238.813px;" id="elbowl8mofzs" class="animable"></path><rect x="187.56" y="250.24" width="11.13" height="10.32" style="fill: rgb(255, 255, 255); stroke: rgb(38, 50, 56); stroke-linecap: round; stroke-linejoin: round; transform-origin: 193.125px 255.4px;" id="elaetpcw4vd1w" class="animable"></rect><rect x="186.9" y="247.79" width="12.45" height="3.32" style="fill: rgb(255, 255, 255); stroke: rgb(38, 50, 56); stroke-linecap: round; stroke-linejoin: round; transform-origin: 193.125px 249.45px;" id="ely6wq8k1118" class="animable"></rect><path d="M145.94,248s-3.52-3-4.6-4.06-3.79-4.06-1.63-3a33.72,33.72,0,0,1,4.6,3s-1.89-5.68-1.89-7.31,2.71-.54,4.06,2.17,2.16,4.6,2.16,4.6-2.43-10.83-.27-11.37,2.71,7,2.71,7,1.9-13.26,4.6-10.29-1.89,10.83-1.89,10.83,5.41-3.79,4.33-.81a7.39,7.39,0,0,1-4.06,4.06s7.85-1.9,5.68,1.08-9.2,5.42-9.2,5.42Z" style="fill: #008EC2; transform-origin: 149.508px 238.813px;" id="eli3buplzadhn" class="animable"></path><rect x="144.25" y="250.24" width="11.13" height="10.32" style="fill: rgb(255, 255, 255); stroke: rgb(38, 50, 56); stroke-linecap: round; stroke-linejoin: round; transform-origin: 149.815px 255.4px;" id="el23nmabjqsz6" class="animable"></rect><rect x="143.59" y="247.79" width="12.45" height="3.32" style="fill: rgb(255, 255, 255); stroke: rgb(38, 50, 56); stroke-linecap: round; stroke-linejoin: round; transform-origin: 149.815px 249.45px;" id="elazkqz4czdt5" class="animable"></rect><rect x="111" y="260" width="99" height="5" style="fill: #008EC2; stroke: rgb(38, 50, 56); stroke-linecap: round; stroke-linejoin: round; transform-origin: 160.5px 262.5px;" id="elxolpfld3xpe" class="animable"></rect><rect x="111" y="299.42" width="99" height="5" style="fill: #008EC2; stroke: rgb(38, 50, 56); stroke-linecap: round; stroke-linejoin: round; transform-origin: 160.5px 301.92px;" id="elz8mr2efo42" class="animable"></rect><rect x="111" y="338.84" width="99" height="5" style="fill: #008EC2; stroke: rgb(38, 50, 56); stroke-linecap: round; stroke-linejoin: round; transform-origin: 160.5px 341.34px;" id="el4dkmc49nusj" class="animable"></rect><rect x="111" y="260" width="3.5" height="126.49" style="fill: #008EC2; stroke: rgb(38, 50, 56); stroke-linecap: round; stroke-linejoin: round; transform-origin: 112.75px 323.245px;" id="el0auvg9jtf37p" class="animable"></rect><rect x="206.5" y="260" width="3.5" height="126.49" style="fill: #008EC2; stroke: rgb(38, 50, 56); stroke-linecap: round; stroke-linejoin: round; transform-origin: 208.25px 323.245px;" id="elct1hz090dop" class="animable"></rect><path d="M352.27,358.33A32.62,32.62,0,0,1,347.64,347a135.7,135.7,0,0,1-2.18-14.74c-.55-4.91-1.64-12.9-1.64-12.9s5.45,7.37,6.27,10.75,2.18,7.06,2.73,11.36,1.36,7.06,1.63,8.91.28,6.44.28,6.44.27-13.81-.55-20.26-1.63-11.67-1.36-16.58.27-5.83.54-8.9.55-8.91.55-8.91,3.27,10.13,4.63,16.58.82,8.6,1.37,14.12.82,6.76.27,9.52-.27,3.07-1.09,6.76a19.62,19.62,0,0,1-1.36,4.6s3.81-9.82,4.9-15a61.48,61.48,0,0,1,3.82-12,34,34,0,0,1,2.73-5.22l4.36-7.36s.27,11.05-1.09,15-1.91,7.06-3.55,10.75a23,23,0,0,0-2.18,8c-.27,2.46-.27,4.6-1.36,6.14s-1.36,3.68-2.18,4.6a13.72,13.72,0,0,1-2.18,1.85s6.54-10.13,8.18-12.59,1.63-3.07,4.09-4.61,3.81-2.45,3.81-2.45-4.9,11.05-6.27,13.2-2.18,4.91-4.09,6.45a27.65,27.65,0,0,0-3,2.76H347.64s-3.27-4.3-3.82-8.29-.82-8-.82-8a51,51,0,0,1,4.37,4C348.73,352.49,352.27,358.33,352.27,358.33Z" style="fill: #008EC2; transform-origin: 360.04px 332.72px;" id="ely0qvdmlkpc" class="animable"></path><rect x="343.86" y="363.02" width="27.77" height="23.36" style="fill: rgb(255, 255, 255); stroke: rgb(38, 50, 56); stroke-linecap: round; stroke-linejoin: round; transform-origin: 357.745px 374.7px;" id="el4gzp9mys8yn" class="animable"></rect><rect x="342.21" y="359.94" width="31.08" height="5.07" style="fill: rgb(255, 255, 255); stroke: rgb(38, 50, 56); stroke-linecap: round; stroke-linejoin: round; transform-origin: 357.75px 362.475px;" id="elebtjaqyk1do" class="animable"></rect><path d="M384.25,284a12.45,12.45,0,0,0,7.27-5.82A13.1,13.1,0,0,0,393,269.3s-6.72,2.86-8.44,6.77a12.45,12.45,0,0,0-1,5C381,276.21,370.33,273,370.33,273s1.53,8.6,4.91,11.36c2.52,2.06,5.71,4.29,7.18,5.29v7.61a13.44,13.44,0,0,0-5.95-4.91c-4-1.54-10.75,1.22-10.75,1.22a13,13,0,0,0,7.37,5.22,12.42,12.42,0,0,0,9.33-1.11v11.87a13.37,13.37,0,0,0-5.95-4.92c-4-1.54-10.75,1.23-10.75,1.23a13.09,13.09,0,0,0,7.37,5.22,12.46,12.46,0,0,0,9.33-1.12v8.8a13.37,13.37,0,0,0-5.95-4.92c-4-1.54-10.75,1.23-10.75,1.23a13.09,13.09,0,0,0,7.37,5.22,12.46,12.46,0,0,0,9.33-1.12v13.4a13.5,13.5,0,0,0-5.95-4.92c-4-1.53-10.75,1.23-10.75,1.23a13,13,0,0,0,7.37,5.22,12.47,12.47,0,0,0,9.33-1.11v11.86a13.44,13.44,0,0,0-5.95-4.91c-4-1.54-10.75,1.22-10.75,1.22a13,13,0,0,0,7.37,5.22,12.42,12.42,0,0,0,9.33-1.11v19.84a.5.5,0,0,0,.5.5.5.5,0,0,0,.5-.5V289.9C383.77,289.31,384.47,287.67,384.25,284Z" style="fill: #008EC2; transform-origin: 379.472px 317.455px;" id="el1i22wlt7jl7" class="animable"></path><path d="M389.67,292.32a13.46,13.46,0,0,0-6.14,5.22,12.44,12.44,0,0,0,9.52,1.22,13,13,0,0,0,7.37-5.22S393.66,290.78,389.67,292.32Z" style="fill: #008EC2; transform-origin: 391.975px 295.529px;" id="ellzz28o4wxjr" class="animable"></path><path d="M389.67,304.29a13.53,13.53,0,0,0-6.14,5.22,12.47,12.47,0,0,0,9.52,1.23,13.09,13.09,0,0,0,7.37-5.22S393.66,302.76,389.67,304.29Z" style="fill: #008EC2; transform-origin: 391.975px 307.504px;" id="el5z23axvs99" class="animable"></path><path d="M389.67,313.5a13.53,13.53,0,0,0-6.14,5.22,12.47,12.47,0,0,0,9.52,1.23,13.09,13.09,0,0,0,7.37-5.22S393.66,312,389.67,313.5Z" style="fill: #008EC2; transform-origin: 391.975px 316.72px;" id="elon7xw8ba94t" class="animable"></path><path d="M389.67,327.62a13.53,13.53,0,0,0-6.14,5.22,12.42,12.42,0,0,0,9.52,1.23,13,13,0,0,0,7.37-5.22S393.66,326.09,389.67,327.62Z" style="fill: #008EC2; transform-origin: 391.975px 330.836px;" id="elnuj5z4zs5io" class="animable"></path><path d="M389.67,339.91a13.46,13.46,0,0,0-6.14,5.22,12.44,12.44,0,0,0,9.52,1.22,13,13,0,0,0,7.37-5.22S393.66,338.37,389.67,339.91Z" style="fill: #008EC2; transform-origin: 391.975px 343.119px;" id="el6b6h3wa6d0d" class="animable"></path><g id="el7dwfew7dt9j" class=""><g style="opacity: 0.5; transform-origin: 383.07px 317.455px;" class="animable" id="elcdmsuskfl6s"><path d="M384.25,284a12.45,12.45,0,0,0,7.27-5.82A13.1,13.1,0,0,0,393,269.3s-6.72,2.86-8.44,6.77a12.45,12.45,0,0,0-1,5C381,276.21,370.33,273,370.33,273s1.53,8.6,4.91,11.36c2.52,2.06,5.71,4.29,7.18,5.29v7.61a13.44,13.44,0,0,0-5.95-4.91c-4-1.54-10.75,1.22-10.75,1.22a13,13,0,0,0,7.37,5.22,12.42,12.42,0,0,0,9.33-1.11v11.87a13.37,13.37,0,0,0-5.95-4.92c-4-1.54-10.75,1.23-10.75,1.23a13.09,13.09,0,0,0,7.37,5.22,12.46,12.46,0,0,0,9.33-1.12v8.8a13.37,13.37,0,0,0-5.95-4.92c-4-1.54-10.75,1.23-10.75,1.23a13.09,13.09,0,0,0,7.37,5.22,12.46,12.46,0,0,0,9.33-1.12v13.4a13.5,13.5,0,0,0-5.95-4.92c-4-1.53-10.75,1.23-10.75,1.23a13,13,0,0,0,7.37,5.22,12.47,12.47,0,0,0,9.33-1.11v11.86a13.44,13.44,0,0,0-5.95-4.91c-4-1.54-10.75,1.22-10.75,1.22a13,13,0,0,0,7.37,5.22,12.42,12.42,0,0,0,9.33-1.11v19.84a.5.5,0,0,0,.5.5.5.5,0,0,0,.5-.5V289.9C383.77,289.31,384.47,287.67,384.25,284Z" id="elb6bud3frel9" class="animable" style="transform-origin: 379.472px 317.455px;"></path><path d="M389.67,292.32a13.46,13.46,0,0,0-6.14,5.22,12.44,12.44,0,0,0,9.52,1.22,13,13,0,0,0,7.37-5.22S393.66,290.78,389.67,292.32Z" id="elkdlvx3ct4vj" class="animable" style="transform-origin: 391.975px 295.529px;"></path><path d="M389.67,304.29a13.53,13.53,0,0,0-6.14,5.22,12.47,12.47,0,0,0,9.52,1.23,13.09,13.09,0,0,0,7.37-5.22S393.66,302.76,389.67,304.29Z" id="el46o870gpdfq" class="animable" style="transform-origin: 391.975px 307.504px;"></path><path d="M389.67,313.5a13.53,13.53,0,0,0-6.14,5.22,12.47,12.47,0,0,0,9.52,1.23,13.09,13.09,0,0,0,7.37-5.22S393.66,312,389.67,313.5Z" id="elzuhxujo01" class="animable" style="transform-origin: 391.975px 316.72px;"></path><path d="M389.67,327.62a13.53,13.53,0,0,0-6.14,5.22,12.42,12.42,0,0,0,9.52,1.23,13,13,0,0,0,7.37-5.22S393.66,326.09,389.67,327.62Z" id="eljeh0gl0cna" class="animable" style="transform-origin: 391.975px 330.836px;"></path><path d="M389.67,339.91a13.46,13.46,0,0,0-6.14,5.22,12.44,12.44,0,0,0,9.52,1.22,13,13,0,0,0,7.37-5.22S393.66,338.37,389.67,339.91Z" id="el3w6p75r6ug7" class="animable" style="transform-origin: 391.975px 343.119px;"></path></g></g><rect x="378.19" y="363.02" width="11.13" height="23.36" style="fill: rgb(255, 255, 255); stroke: rgb(38, 50, 56); stroke-linecap: round; stroke-linejoin: round; transform-origin: 383.755px 374.7px;" id="elsdnwo0c1sq" class="animable"></rect><rect x="377.53" y="359.94" width="12.45" height="5.07" style="fill: rgb(255, 255, 255); stroke: rgb(38, 50, 56); stroke-linecap: round; stroke-linejoin: round; transform-origin: 383.755px 362.475px;" id="elzot3h7fo02n" class="animable"></rect><rect x="301.76" y="363.02" width="27.77" height="23.36" style="fill: rgb(255, 255, 255); stroke: rgb(38, 50, 56); stroke-linecap: round; stroke-linejoin: round; transform-origin: 315.645px 374.7px;" id="eld1rzywamu6f" class="animable"></rect><rect x="300.11" y="359.94" width="31.08" height="5.07" style="fill: rgb(255, 255, 255); stroke: rgb(38, 50, 56); stroke-linecap: round; stroke-linejoin: round; transform-origin: 315.65px 362.475px;" id="eluv68q9b5lp9" class="animable"></rect><path d="M306.47,319a8.77,8.77,0,0,0-4-4.91,68.91,68.91,0,0,0-10.14-4.61s-.3,1.84,2.46,5.22,8.6,7.68,8.6,7.68a49.46,49.46,0,0,1-6.14.3c-4,0-7.68,5.22-7.68,5.22s5.53.92,7.37.92,8.6-2.15,8.6-2.15-2.15,3.38-2.15,5.84a95.11,95.11,0,0,0,1.22,9.52s3.69-1.54,4.61-4.61a69.73,69.73,0,0,0,1.54-9.52,10.52,10.52,0,0,0,3.07,3.07c2.45,1.84,9.21,4.3,9.21,4.3a21.23,21.23,0,0,0-3.38-7.68,14.62,14.62,0,0,0-7.68-5.21,5.19,5.19,0,0,0,3.69-1.85c1.53-1.84,4-8.29,4-8.29a9.1,9.1,0,0,0-6.14.62C310.46,314.42,306.47,319,306.47,319Z" style="fill: #008EC2; transform-origin: 306.305px 325.755px;" id="elaieboaz1ic" class="animable"></path><g id="el4vqv8eq9rci" class=""><path d="M306.47,319a8.77,8.77,0,0,0-4-4.91,68.91,68.91,0,0,0-10.14-4.61s-.3,1.84,2.46,5.22,8.6,7.68,8.6,7.68a49.46,49.46,0,0,1-6.14.3c-4,0-7.68,5.22-7.68,5.22s5.53.92,7.37.92,8.6-2.15,8.6-2.15-2.15,3.38-2.15,5.84a95.11,95.11,0,0,0,1.22,9.52s3.69-1.54,4.61-4.61a69.73,69.73,0,0,0,1.54-9.52,10.52,10.52,0,0,0,3.07,3.07c2.45,1.84,9.21,4.3,9.21,4.3a21.23,21.23,0,0,0-3.38-7.68,14.62,14.62,0,0,0-7.68-5.21,5.19,5.19,0,0,0,3.69-1.85c1.53-1.84,4-8.29,4-8.29a9.1,9.1,0,0,0-6.14.62C310.46,314.42,306.47,319,306.47,319Z" style="opacity: 0.5; transform-origin: 306.305px 325.755px;" class="animable" id="eldbc36sn2j7t"></path></g><path d="M321.05,343.26a5.38,5.38,0,0,0-2.43-3,41.24,41.24,0,0,0-6.16-2.8s-.19,1.12,1.49,3.17a36.24,36.24,0,0,0,5.23,4.67,28.91,28.91,0,0,1-3.73.19c-2.43,0-4.67,3.17-4.67,3.17s3.36.56,4.48.56a34.85,34.85,0,0,0,5.23-1.31,8.59,8.59,0,0,0-1.31,3.55,57,57,0,0,0,.75,5.78,5.26,5.26,0,0,0,2.8-2.8,43.4,43.4,0,0,0,.93-5.78,6.46,6.46,0,0,0,1.86,1.86,32.05,32.05,0,0,0,5.6,2.62,12.78,12.78,0,0,0-2.05-4.67,8.88,8.88,0,0,0-4.67-3.17,3.15,3.15,0,0,0,2.24-1.12,28,28,0,0,0,2.43-5,5.55,5.55,0,0,0-3.73.37A19.38,19.38,0,0,0,321.05,343.26Z" style="fill: #008EC2; transform-origin: 320.95px 347.35px;" id="elne27fc8o5e7" class="animable"></path><g id="el4c7ag26aakw" class=""><path d="M321.05,343.26a5.38,5.38,0,0,0-2.43-3,41.24,41.24,0,0,0-6.16-2.8s-.19,1.12,1.49,3.17a36.24,36.24,0,0,0,5.23,4.67,28.91,28.91,0,0,1-3.73.19c-2.43,0-4.67,3.17-4.67,3.17s3.36.56,4.48.56a34.85,34.85,0,0,0,5.23-1.31,8.59,8.59,0,0,0-1.31,3.55,57,57,0,0,0,.75,5.78,5.26,5.26,0,0,0,2.8-2.8,43.4,43.4,0,0,0,.93-5.78,6.46,6.46,0,0,0,1.86,1.86,32.05,32.05,0,0,0,5.6,2.62,12.78,12.78,0,0,0-2.05-4.67,8.88,8.88,0,0,0-4.67-3.17,3.15,3.15,0,0,0,2.24-1.12,28,28,0,0,0,2.43-5,5.55,5.55,0,0,0-3.73.37A19.38,19.38,0,0,0,321.05,343.26Z" style="opacity: 0.5; transform-origin: 320.95px 347.35px;" class="animable" id="eldhjdsmcua3d"></path></g><path d="M312.14,354.89a6.43,6.43,0,0,0-2.94-3.61,50.56,50.56,0,0,0-7.45-3.39s-.23,1.35,1.8,3.84a45.07,45.07,0,0,0,6.33,5.65,36.49,36.49,0,0,1-4.52.22c-2.94,0-5.65,3.84-5.65,3.84s4.07.68,5.42.68,6.33-1.58,6.33-1.58-1.58,2.49-1.58,4.29a69.66,69.66,0,0,0,.9,7s2.71-1.13,3.39-3.39a50.7,50.7,0,0,0,1.13-7,7.7,7.7,0,0,0,2.26,2.26c1.81,1.36,6.78,3.17,6.78,3.17a15.44,15.44,0,0,0-2.49-5.65,10.75,10.75,0,0,0-5.64-3.84,3.81,3.81,0,0,0,2.71-1.36c1.13-1.35,2.93-6.1,2.93-6.1a6.7,6.7,0,0,0-4.52.45C315.08,351.5,312.14,354.89,312.14,354.89Z" style="fill: #008EC2; transform-origin: 312.025px 359.86px;" id="ely09q7hdq7up" class="animable"></path><path d="M303.7,341.75a6.44,6.44,0,0,0-2.93-3.62,51,51,0,0,0-7.46-3.39s-.22,1.36,1.81,3.85a44.3,44.3,0,0,0,6.32,5.64,34.84,34.84,0,0,1-4.51.23c-2.94,0-5.65,3.84-5.65,3.84s4.06.68,5.42.68S303,347.4,303,347.4s-1.59,2.48-1.59,4.29a68.64,68.64,0,0,0,.91,7s2.71-1.13,3.39-3.39a52.29,52.29,0,0,0,1.13-7,7.85,7.85,0,0,0,2.26,2.26c1.8,1.36,6.77,3.16,6.77,3.16a15.52,15.52,0,0,0-2.48-5.65,10.83,10.83,0,0,0-5.65-3.84,3.82,3.82,0,0,0,2.71-1.35c1.13-1.36,2.94-6.1,2.94-6.1a6.7,6.7,0,0,0-4.52.45C306.64,338.36,303.7,341.75,303.7,341.75Z" style="fill: #008EC2; transform-origin: 303.575px 346.715px;" id="elt2j0kdzhifb" class="animable"></path><path d="M318.39,330.91a6.46,6.46,0,0,0-4.6.72,50.74,50.74,0,0,0-6.69,4.73s1.06.88,4.23.38a44.88,44.88,0,0,0,8.07-2.62,35,35,0,0,1-2.08,4c-1.48,2.54.47,6.82.47,6.82s2.63-3.17,3.32-4.34,1.82-6.26,1.82-6.26a10.54,10.54,0,0,0,2.91,3.53,68.77,68.77,0,0,0,6.5,2.74s.39-2.91-1.22-4.63a50.47,50.47,0,0,0-5.48-4.51,7.72,7.72,0,0,0,3.09-.81c2.09-.88,6.15-4.26,6.15-4.26a15.41,15.41,0,0,0-6.13-.7,10.81,10.81,0,0,0-6.16,2.94,3.82,3.82,0,0,0,.19-3C322.18,324,319,320,319,320a6.7,6.7,0,0,0-1.88,4.13C316.94,326.67,318.39,330.91,318.39,330.91Z" style="fill: #008EC2; transform-origin: 320.99px 332.47px;" id="elsoonp1zr5sa" class="animable"></path><rect x="321.57" y="370.42" width="37.52" height="15.97" style="fill: rgb(255, 255, 255); stroke: rgb(38, 50, 56); stroke-linecap: round; stroke-linejoin: round; transform-origin: 340.33px 378.405px;" id="elvq5qpenjuhm" class="animable"></rect><rect x="319.34" y="368.31" width="41.99" height="3.46" style="fill: rgb(255, 255, 255); stroke: rgb(38, 50, 56); stroke-linecap: round; stroke-linejoin: round; transform-origin: 340.335px 370.04px;" id="el80f6lx0u02a" class="animable"></rect><path d="M335.63,361.71s1.85-.93-1.22-3.08-4-2.14-4-2.14l3.07,5.22a25,25,0,0,0-6.14-1.23,10.55,10.55,0,0,0-4.3.92l6.29,3.3s-6.6-.54-7.83-.54a23,23,0,0,0-4.6,1.23l4.6.92-7.06,2.15,7.37.61v3.07l4.6-2.76a8.64,8.64,0,0,0,.93,1.84c.61.92,2.76,3.38,2.76,3.38l2.76-4.3s.92,2.77,1.84,2.77a17.4,17.4,0,0,1,3.07.61l.71-3.94,4.51,3.33V370.3l2.46,2.77,2.15-3.38.31,2.76,4-1.84,1.84,3.68.92-4.6,2.58.42.49-1.34,1.23.61a17.58,17.58,0,0,0,4.91,1.23,33.28,33.28,0,0,0-2.45-3.07,12.85,12.85,0,0,0-3.38-1.84l2.15-.92s-4.3-1.54-5.53-1.54a9.75,9.75,0,0,0-3.38,1.23,8.57,8.57,0,0,0,2.46-2.46,26,26,0,0,0,1.23-3.38s-4.61,0-5.22,1.54-1.84,4-1.84,4l-2.15-4.6a7.55,7.55,0,0,0-1.54,2.15,24.84,24.84,0,0,0-.61,2.45l-1.84-3.68a9.49,9.49,0,0,0-2.15-2.46,31.7,31.7,0,0,0-.31,3.38v2.15l-1.54-3.69v3.07Z" style="fill: #008EC2; transform-origin: 339.16px 365.545px;" id="elq87zvh59iq" class="animable"></path><g id="elb426jggqjm4" class=""><path d="M335.63,361.71s1.85-.93-1.22-3.08-4-2.14-4-2.14l3.07,5.22a25,25,0,0,0-6.14-1.23,10.55,10.55,0,0,0-4.3.92l6.29,3.3s-6.6-.54-7.83-.54a23,23,0,0,0-4.6,1.23l4.6.92-7.06,2.15,7.37.61v3.07l4.6-2.76a8.64,8.64,0,0,0,.93,1.84c.61.92,2.76,3.38,2.76,3.38l2.76-4.3s.92,2.77,1.84,2.77a17.4,17.4,0,0,1,3.07.61l.71-3.94,4.51,3.33V370.3l2.46,2.77,2.15-3.38.31,2.76,4-1.84,1.84,3.68.92-4.6,2.58.42.49-1.34,1.23.61a17.58,17.58,0,0,0,4.91,1.23,33.28,33.28,0,0,0-2.45-3.07,12.85,12.85,0,0,0-3.38-1.84l2.15-.92s-4.3-1.54-5.53-1.54a9.75,9.75,0,0,0-3.38,1.23,8.57,8.57,0,0,0,2.46-2.46,26,26,0,0,0,1.23-3.38s-4.61,0-5.22,1.54-1.84,4-1.84,4l-2.15-4.6a7.55,7.55,0,0,0-1.54,2.15,24.84,24.84,0,0,0-.61,2.45l-1.84-3.68a9.49,9.49,0,0,0-2.15-2.46,31.7,31.7,0,0,0-.31,3.38v2.15l-1.54-3.69v3.07Z" style="opacity: 0.3; transform-origin: 339.16px 365.545px;" class="animable" id="el2sb5u9ensx5"></path></g></g><defs>     <filter id="active" height="200%">         <feMorphology in="SourceAlpha" result="DILATED" operator="dilate" radius="2"></feMorphology>                <feFlood flood-color="#32DFEC" flood-opacity="1" result="PINK"></feFlood>        <feComposite in="PINK" in2="DILATED" operator="in" result="OUTLINE"></feComposite>        <feMerge>            <feMergeNode in="OUTLINE"></feMergeNode>            <feMergeNode in="SourceGraphic"></feMergeNode>        </feMerge>    </filter>    <filter id="hover" height="200%">        <feMorphology in="SourceAlpha" result="DILATED" operator="dilate" radius="2"></feMorphology>                <feFlood flood-color="#ff0000" flood-opacity="0.5" result="PINK"></feFlood>        <feComposite in="PINK" in2="DILATED" operator="in" result="OUTLINE"></feComposite>        <feMerge>            <feMergeNode in="OUTLINE"></feMergeNode>            <feMergeNode in="SourceGraphic"></feMergeNode>        </feMerge>            <feColorMatrix type="matrix" values="0   0   0   0   0                0   1   0   0   0                0   0   0   0   0                0   0   0   1   0 "></feColorMatrix>    </filter></defs></svg>
