<svg id="Layer_1" data-name="Layer 1" xmlns="http://www.w3.org/2000/svg" viewBox="0 0 113.81 124.35"><title>search</title><g id="Layer_1-2" data-name="Layer_1"><g id="_321557424" data-name=" 321557424"><path d="M41.58,81.87a3.94,3.94,0,0,1,7.88,0" style="fill:none"/><path d="M25.72,25.29H65.33A14.15,14.15,0,0,1,75.4,29.56a13.87,13.87,0,0,1,4.16,10.07V76.29a23.68,23.68,0,0,1,4.92,2.08h0a23.51,23.51,0,0,1,9.85,29.55l2.85,1.64-1.09,2-2.74-1.64c-.11.22-.22.33-.33.55h0v.11c-.11.11-.22.33-.33.44l2.74,1.64-1.09,1.86-2.85-1.64a24,24,0,0,1-12.69,8.65A23.39,23.39,0,0,1,61,119.08h0a23.34,23.34,0,0,1-8.43-8.21H25.72A14.2,14.2,0,0,1,11.38,96.64V42H1.31a1.06,1.06,0,0,1-1-1V31.86a6.45,6.45,0,0,1,1.86-4.6,6.61,6.61,0,0,1,4.71-2H25.72ZM13.35,41.05V96.64A12.7,12.7,0,0,0,17,105.4a12.61,12.61,0,0,0,8.75,3.5H51.54a26.13,26.13,0,0,1-1.64-4A23.72,23.72,0,0,1,52.31,86.9h0A23.55,23.55,0,0,1,66.64,76.07a23.11,23.11,0,0,1,10.94-.33V39.63A12.33,12.33,0,0,0,65.33,27.26H11.49a6.45,6.45,0,0,1,1.86,4.6ZM10.07,28.69a4.49,4.49,0,0,0-3.17-1.42,4.55,4.55,0,0,0-3.28,1.42A4.21,4.21,0,0,0,2.3,31.86v8.21h9.08V31.86a4.21,4.21,0,0,0-1.31-3.17Zm87.11,86.78,2.19-3.83-.66-.33L96.52,115Zm3.28-5.69h0l1,.55,10.18,5.8h0a4.48,4.48,0,0,1,2,2.74,4,4,0,0,1-.22,3v.11l-.22.22h0v.11h0a5.11,5.11,0,0,1-2.63,2,5,5,0,0,1-3.06-.33h0l-.11-.11h-.11L98,118.42h0l-1-.55-2.63-1.53-.88-.55.55-.88,3.28-5.69.55-1,.88.55Zm-1.31,6.78L108,121.7h0l.33.11A2.12,2.12,0,0,0,110,122a2.08,2.08,0,0,0,1.2-.77v-.11l.22-.22a2.51,2.51,0,0,0,.11-1.53,2,2,0,0,0-1-1.31h0l-9.19-5.36-2.19,3.83ZM67.08,77.93a21.91,21.91,0,0,0-13.13,10h0a21.76,21.76,0,0,0,8,29.55h0a21.42,21.42,0,0,0,16.31,2.08,21.1,21.1,0,0,0,13-10v-.11h.11A21.6,21.6,0,0,0,83.5,80.12h0a21.25,21.25,0,0,0-16.41-2.19ZM58.65,90.62h0l-.11.11h0A15.88,15.88,0,0,0,57,102.88a15.61,15.61,0,0,0,7.44,9.85l.11.11a16.72,16.72,0,0,0,12.26,1.64,16.45,16.45,0,0,0,10-7.66h0a16.37,16.37,0,0,0,1.53-12.37,16,16,0,0,0-7.55-9.85h0A16.72,16.72,0,0,0,68.5,83a16,16,0,0,0-9.85,7.66ZM57,89.53A17.8,17.8,0,0,1,68,81.1a18.57,18.57,0,0,1,13.79,1.75h0V83h0a18.07,18.07,0,0,1,6.68,24.84h0a18.07,18.07,0,0,1-24.84,6.68h-.11A18.41,18.41,0,0,1,55,103.43,17.79,17.79,0,0,1,56.9,89.75h0v-.11l.11-.11Z" style="fill:#7fb2b2"/><path d="M91.16,32.08h0a2,2,0,0,1,2,2v.66h.55a2.06,2.06,0,0,1,2.08,2h0a2.15,2.15,0,0,1-2.08,2.08h-.55v.55a2,2,0,0,1-2,2h0a2.06,2.06,0,0,1-2.08-2v-.55h-.55a2.06,2.06,0,0,1-2-2.08h0a2,2,0,0,1,2-2h.55V34A2.14,2.14,0,0,1,91.16,32.08Z" style="fill:#7fb2b2"/><path d="M2.19,61.73h0a1,1,0,0,1,1,1v.22h.22a1,1,0,0,1,1,1h0a1,1,0,0,1-1,1H3.17v.22a1,1,0,0,1-1,1h0a1,1,0,0,1-1-1v-.22H1a1,1,0,0,1-1-1H0a1,1,0,0,1,1-1H1.2v-.22A1,1,0,0,1,2.19,61.73Z" style="fill:#7fb2b2"/><path d="M38.41,12.71h0a1.24,1.24,0,0,1,1.31,1.2v.33h.33a1.24,1.24,0,0,1,1.31,1.2h0a1.26,1.26,0,0,1-1.31,1.31h-.33v.33a1.24,1.24,0,0,1-1.31,1.2h0a1.21,1.21,0,0,1-1.2-1.2v-.33h-.33a1.24,1.24,0,0,1-1.2-1.31h0a1.21,1.21,0,0,1,1.2-1.2h.33v-.33A1.21,1.21,0,0,1,38.41,12.71Z" style="fill:#7fb2b2"/><path d="M46.84,116.12h0a1.15,1.15,0,0,1,1.2,1.2v.33h.33a1.15,1.15,0,0,1,1.2,1.2h0a1.18,1.18,0,0,1-1.2,1.31H48v.33a1.15,1.15,0,0,1-1.2,1.2h0a1.21,1.21,0,0,1-1.2-1.2v-.33H45.3a1.24,1.24,0,0,1-1.2-1.31h0a1.21,1.21,0,0,1,1.2-1.2h.33v-.33A1.21,1.21,0,0,1,46.84,116.12Z" style="fill:#7fb2b2"/><path d="M95.2,64.47h0a1,1,0,0,1,1,1v.22h.22a.92.92,0,0,1,1,1h0a.92.92,0,0,1-1,1h-.22V68a1.06,1.06,0,0,1-1,1h0a1.06,1.06,0,0,1-1-1v-.33H94a1,1,0,0,1-1-1h0a1,1,0,0,1,1-1h.22v-.22A1,1,0,0,1,95.2,64.47Z" style="fill:#7fb2b2"/><path d="M6.68,69h0A1.33,1.33,0,0,1,8,70.27v.33h.33A1.36,1.36,0,0,1,9.63,72h0a1.26,1.26,0,0,1-1.31,1.31H8v.33a1.43,1.43,0,0,1-1.31,1.42h0a1.45,1.45,0,0,1-1.42-1.42v-.33H4.92A1.26,1.26,0,0,1,3.61,72h0A1.36,1.36,0,0,1,4.92,70.6h.33v-.33A1.36,1.36,0,0,1,6.68,69Z" style="fill:#7fb2b2"/><path d="M55,10.41h0a1,1,0,0,1,1,1v.22h.33a1,1,0,0,1,.88,1h0a1,1,0,0,1-.88,1H56v.33a1,1,0,0,1-1,.88h0a1,1,0,0,1-1-.88v-.33h-.22a1,1,0,0,1-1-1h0a1,1,0,0,1,1-1h.22V11.4A1,1,0,0,1,55,10.41Z" style="fill:#7fb2b2"/><path d="M25.72,108.9H51.54a26.13,26.13,0,0,1-1.64-4,27.34,27.34,0,0,1-.77-5.91H21.45a12.48,12.48,0,0,1-8.1-3v.66A12.7,12.7,0,0,0,17,105.4a12.61,12.61,0,0,0,8.75,3.5Z" style="fill:#f0f7f7"/><path d="M12.69,28.91a6.52,6.52,0,0,1,.66,3v.77h62A11,11,0,0,0,74,30.88a11.78,11.78,0,0,0-2.63-2Z" style="fill:#f0f7f7"/><path d="M6.89,27.26a3.24,3.24,0,0,0-1.09.22,5.14,5.14,0,0,0-1,.66,5.15,5.15,0,0,0-1.53,3.61v8.32h8.1V31.86a4.21,4.21,0,0,0-1.31-3.17A4.49,4.49,0,0,0,6.89,27.26Z" style="fill:#f0f7f7"/><path d="M63.47,114.48a18.24,18.24,0,0,1-6.68-24.73l-2.85-1.64a21.21,21.21,0,0,0-2.08,16.2,21.78,21.78,0,0,0,10.07,13.13h0a21.63,21.63,0,0,0,27.8-5.58h0l.33-.55c.44-.55.77-1.09,1.2-1.64L88.42,108a18.26,18.26,0,0,1-24.84,6.46Z" style="fill:#f0f7f7"/><polygon points="97.5 113.28 96.52 115.03 97.17 115.47 98.27 113.71 97.5 113.28" style="fill:#f0f7f7"/><path d="M100.13,114.81l-1,1.75L108,121.7h0l.33.11A2.12,2.12,0,0,0,110,122a2.08,2.08,0,0,0,1.2-.77v-.11h0Z" style="fill:#f0f7f7"/><path d="M41.58,77.06a3.94,3.94,0,1,0,7.88,0" style="fill:none"/></g></g></svg>