<?xml version="1.0" encoding="UTF-8"?>
<!DOCTYPE svg PUBLIC "-//W3C//DTD SVG 1.1//EN" "http://www.w3.org/Graphics/SVG/1.1/DTD/svg11.dtd">
<!-- Creator: CorelDRAW X7 -->
<svg xmlns="http://www.w3.org/2000/svg" xml:space="preserve" width="326.448mm" height="306.917mm" version="1.1" style="shape-rendering:geometricPrecision; text-rendering:geometricPrecision; image-rendering:optimizeQuality; fill-rule:evenodd; clip-rule:evenodd"
viewBox="0 0 32645 30692"
 xmlns:xlink="http://www.w3.org/1999/xlink">
 <defs>
  <style type="text/css">
   <![CDATA[
    .fil0 {fill:#FEFEFE}
   ]]>
  </style>
 </defs>
 <g id="Layer_x0020_1">
  <metadata id="CorelCorpID_0Corel-Layer"/>
  <g id="_604376776">
   <path class="fil0" d="M14527 6548l-7739 7738c-152,152 -152,405 0,557l5292 5292c152,152 405,151 557,0l7738 -7739 3760 3761 -10129 10129c-849,849 -2241,849 -3090,0l-10279 -10279c-849,-849 -849,-2241 0,-3090l10129 -10129 2788 -2788 973 6548z"/>
   <path class="fil0" d="M18118 24144l7739 -7739c152,-151 152,-404 0,-556l-5293 -5292c-151,-152 -404,-152 -556,0l-7738 7738 -3761 -3760 10130 -10129c849,-850 2241,-850 3090,0l10279 10279c849,849 849,2240 0,3090l-10130 10129 -2787 2788 -973 -6548z"/>
  </g>
 </g>
</svg>
