<?xml version="1.0" encoding="UTF-8"?>
<!DOCTYPE svg PUBLIC "-//W3C//DTD SVG 1.1//EN" "http://www.w3.org/Graphics/SVG/1.1/DTD/svg11.dtd">
<!-- Creator: CorelDRAW X7 -->
<svg xmlns="http://www.w3.org/2000/svg" xml:space="preserve" width="364.598mm" height="93.8897mm" version="1.1" style="shape-rendering:geometricPrecision; text-rendering:geometricPrecision; image-rendering:optimizeQuality; fill-rule:evenodd; clip-rule:evenodd"
viewBox="0 0 56659 14591"
 xmlns:xlink="http://www.w3.org/1999/xlink">
 <defs>
  <style type="text/css">
   <![CDATA[
    .fil0 {fill:#FEFEFE}
   ]]>
  </style>
 </defs>
 <g id="Layer_x0020_1">
  <metadata id="CorelCorpID_0Corel-Layer"/>
  <path class="fil0" d="M2030 4367c-285,0 -549,-53 -795,-160 -244,-108 -456,-252 -640,-435 -183,-184 -328,-398 -435,-642 -107,-244 -160,-508 -160,-794 0,-285 53,-549 160,-793 107,-245 252,-458 435,-642 184,-183 396,-328 640,-435 246,-107 510,-160 795,-160l9266 0c204,0 376,72 519,213 143,143 215,315 215,519 0,204 -72,378 -215,519 -143,143 -315,215 -519,215l-9296 0c-154,0 -287,52 -406,160 -116,107 -175,242 -175,404 0,154 59,286 175,398 119,111 252,167 406,167l8441 0c285,0 552,53 802,160 249,108 465,252 648,436 184,183 328,399 435,648 108,250 160,517 160,801 0,286 -52,551 -160,795 -107,244 -251,458 -435,641 -183,184 -399,325 -648,428 -250,101 -517,152 -802,152l-9251 0c-203,0 -376,-71 -519,-214 -143,-142 -214,-316 -214,-520 0,-203 71,-376 214,-519 143,-141 316,-212 519,-212l9312 0c154,0 286,-53 398,-161 112,-107 168,-237 168,-390 0,-163 -56,-300 -168,-411 -112,-112 -244,-168 -398,-168l-8472 0zm13449 1861c0,204 -71,378 -214,520 -141,142 -315,214 -519,214 -204,0 -376,-72 -519,-214 -141,-142 -213,-316 -213,-520l0 -5190c0,-203 72,-376 213,-519 143,-141 315,-213 519,-213 204,0 378,72 519,213 143,143 214,316 214,519l0 5190zm3558 -1861c-286,0 -550,-53 -794,-160 -244,-108 -459,-252 -642,-435 -184,-184 -328,-398 -435,-642 -106,-244 -160,-508 -160,-794 0,-285 54,-549 160,-793 107,-245 251,-458 435,-642 183,-183 398,-328 642,-435 244,-107 508,-160 794,-160l9266 0c204,0 376,72 519,213 142,143 213,315 213,519 0,204 -71,378 -213,519 -143,143 -315,215 -519,215l-9297 0c-153,0 -288,52 -404,160 -119,107 -176,242 -176,404 0,154 57,286 176,398 116,111 251,167 404,167l8442 0c285,0 552,53 801,160 250,108 466,252 649,436 184,183 328,399 435,648 108,250 161,517 161,801 0,286 -53,551 -161,795 -107,244 -251,458 -435,641 -183,184 -399,325 -649,428 -249,101 -516,152 -801,152l-9252 0c-204,0 -376,-71 -519,-214 -142,-142 -213,-316 -213,-520 0,-203 71,-376 213,-519 143,-141 315,-212 519,-212l9313 0c152,0 284,-53 396,-161 112,-107 168,-237 168,-390 0,-163 -56,-300 -168,-411 -112,-112 -244,-168 -396,-168l-8472 0zm13432 -1466l3528 0c528,0 1047,-68 1557,-206 508,-137 1006,-317 1489,-543 483,-223 946,-477 1389,-763 442,-284 867,-575 1274,-870 173,-141 345,-213 520,-213 203,0 376,72 519,213 143,143 212,316 212,519 0,143 -40,267 -121,375 -82,107 -178,200 -290,282 -265,204 -519,395 -763,572 -244,179 -488,344 -734,496 -244,154 -496,302 -755,443 -260,143 -536,286 -832,427 296,143 572,286 832,428 259,143 511,290 755,443 246,153 490,318 734,497 244,177 498,368 763,572 112,81 208,175 290,283 81,107 121,231 121,373 0,203 -69,377 -212,519 -143,143 -316,214 -519,214 -175,0 -347,-71 -520,-214 -418,-305 -846,-600 -1289,-885 -443,-286 -903,-539 -1382,-764 -478,-224 -973,-401 -1481,-533 -510,-132 -1029,-199 -1557,-199l-3528 0 0 1861c0,204 -69,378 -212,520 -143,143 -311,214 -504,214 -204,0 -378,-71 -519,-214 -143,-142 -214,-316 -214,-520l0 -5190c0,-203 71,-376 214,-519 141,-141 311,-213 504,-213 203,0 376,72 519,213 143,143 212,316 212,519l0 1863 0 0zm16534 2412c0,-264 91,-488 275,-671 183,-184 407,-275 673,-275 264,0 487,91 671,275 183,183 275,407 275,671 0,264 -92,488 -275,672 -184,183 -407,275 -671,275 -266,0 -490,-92 -673,-275 -184,-184 -275,-408 -275,-672zm-3220 1374c-154,183 -342,275 -566,275 -204,0 -376,-72 -519,-214 -141,-142 -213,-316 -213,-520 0,-181 50,-329 152,-441l3710 -4993c172,-233 402,-424 687,-572 286,-147 590,-222 917,-222 304,0 595,67 870,199 273,132 497,315 671,550l3710 4960c60,72 111,151 152,238 40,86 60,180 60,281 0,204 -70,378 -212,520 -143,142 -316,214 -520,214 -244,0 -438,-96 -579,-291l-3557 -4747c-72,-81 -160,-171 -268,-267 -107,-97 -216,-145 -327,-145 -112,0 -223,48 -330,145 -106,96 -190,186 -252,267l-3586 4763z"/>
  <path class="fil0" d="M1817 10718c-171,0 -308,40 -406,121 -99,83 -149,190 -149,325 0,134 60,241 182,320 121,79 401,173 839,281 438,108 778,269 1021,485 242,216 363,532 363,945 0,415 -155,751 -466,1009 -311,258 -719,387 -1226,387 -730,0 -1389,-272 -1975,-813l614 -754c499,437 959,654 1381,654 190,0 339,-40 446,-122 109,-81 162,-191 162,-330 0,-140 -58,-250 -171,-331 -115,-82 -342,-165 -681,-248 -537,-128 -930,-294 -1181,-499 -248,-205 -373,-526 -373,-965 0,-439 159,-776 473,-1015 315,-238 708,-356 1179,-356 310,0 617,53 926,159 308,105 577,254 807,449l-522 753c-401,-304 -816,-455 -1243,-455zm8976 1483c0,-412 -132,-763 -398,-1054 -264,-291 -589,-437 -975,-437 -385,0 -710,146 -974,437 -264,291 -396,642 -396,1054 0,411 132,763 396,1052 264,287 589,432 974,432 386,0 711,-145 975,-432 266,-289 398,-641 398,-1052zm349 1698c-466,457 -1041,685 -1725,685 -683,0 -1258,-228 -1725,-685 -467,-455 -700,-1022 -700,-1702 0,-677 233,-1246 700,-1701 467,-456 1042,-684 1725,-684 684,0 1259,228 1725,684 468,455 701,1024 701,1701 0,680 -233,1247 -701,1702zm7455 -3981l0 906 -2142 0 0 997 2036 0 0 905 -2036 0 0 1812 -1030 0 0 -4620 3172 0 0 0zm5538 892l0 3728 -1030 0 0 -3728 -1310 0 0 -892 3649 0 0 892 -1309 0 0 0zm6213 1765l819 -2657 1079 0 812 2657 919 -2657 1117 0 -1613 4620 -768 0 -1010 -3212 -1005 3212 -766 0 -1613 -4620 1117 0 912 2657 0 0zm11051 1963l-431 -998 -1936 0 -429 998 -1097 0 1995 -4620 998 0 1997 4620 -1097 0 0 0zm-1396 -3245l-581 1341 1156 0 -575 -1341zm9484 158c0,740 -292,1219 -878,1435l1169 1652 -1268 0 -1024 -1475 -715 0 0 1475 -1030 0 0 -4620 1751 0c718,0 1231,121 1537,363 306,243 458,633 458,1170l0 0zm-1962 720c352,0 592,-57 721,-171 127,-115 191,-297 191,-545 0,-251 -65,-420 -199,-513 -132,-92 -362,-139 -693,-139l-774 0 0 1368 754 0 0 0zm9061 -2253l0 918 -2300 0 0 953 2069 0 0 878 -2069 0 0 959 2373 0 0 912 -3405 0 0 -4620 3332 0 0 0z"/>
 </g>
</svg>
