<?xml version="1.0" encoding="UTF-8"?>
<!DOCTYPE svg PUBLIC "-//W3C//DTD SVG 1.1//EN" "http://www.w3.org/Graphics/SVG/1.1/DTD/svg11.dtd">
<!-- Creator: CorelDRAW X7 -->
<svg xmlns="http://www.w3.org/2000/svg" xml:space="preserve" width="494.577mm" height="112.254mm" version="1.1" style="shape-rendering:geometricPrecision; text-rendering:geometricPrecision; image-rendering:optimizeQuality; fill-rule:evenodd; clip-rule:evenodd"
viewBox="0 0 49458 11225"
 xmlns:xlink="http://www.w3.org/1999/xlink">
 <defs>
  <style type="text/css">
   <![CDATA[
    .fil0 {fill:#FEFEFE}
   ]]>
  </style>
 </defs>
 <g id="Layer_x0020_1">
  <metadata id="CorelCorpID_0Corel-Layer"/>
  <g id="_609102096">
   <g>
    <path class="fil0" d="M5313 2395l-2830 2830c-56,56 -56,148 0,204l1935 1935c56,56 148,56 204,0l2830 -2830 1375 1375 -3704 3705c-311,311 -820,311 -1130,0l-3760 -3760c-311,-310 -311,-819 0,-1130l3705 -3704 1019 -1020 356 2395z"/>
    <path class="fil0" d="M6627 8831l2830 -2831c56,-55 56,-148 0,-203l-1936 -1936c-55,-55 -147,-55 -203,0l-2830 2830 -1376 -1375 3705 -3705c311,-310 820,-310 1130,0l3760 3760c310,311 310,819 0,1130l-3705 3705 -1020 1019 -355 -2394z"/>
   </g>
   <path class="fil0" d="M14304 3661c-183,0 -353,-34 -511,-103 -157,-69 -294,-162 -412,-280 -118,-118 -211,-256 -280,-413 -69,-157 -103,-327 -103,-511 0,-183 34,-353 103,-510 69,-158 162,-295 280,-413 118,-118 255,-211 412,-280 158,-69 328,-103 511,-103l5963 0c131,0 242,46 334,137 92,92 138,203 138,334 0,131 -46,243 -138,334 -92,92 -203,138 -334,138l-5982 0c-99,0 -185,34 -261,103 -75,69 -113,156 -113,260 0,99 38,184 113,256 76,72 162,108 261,108l5432 0c183,0 355,34 516,103 160,69 299,162 417,280 118,118 211,257 280,417 69,161 103,333 103,516 0,184 -34,354 -103,511 -69,157 -162,295 -280,413 -118,118 -257,209 -417,275 -161,65 -333,98 -516,98l-5953 0c-131,0 -242,-46 -334,-138 -92,-91 -138,-203 -138,-334 0,-131 46,-242 138,-334 92,-91 203,-137 334,-137l5992 0c99,0 184,-34 256,-103 72,-69 108,-153 108,-251 0,-105 -36,-193 -108,-265 -72,-72 -157,-108 -256,-108l-5452 0zm8655 1198c0,131 -46,243 -138,334 -91,92 -203,138 -334,138 -131,0 -242,-46 -334,-138 -91,-91 -137,-203 -137,-334l0 -3340c0,-131 46,-242 137,-334 92,-91 203,-137 334,-137 131,0 243,46 334,137 92,92 138,203 138,334l0 3340zm2289 -1198c-184,0 -354,-34 -511,-103 -157,-69 -295,-162 -413,-280 -118,-118 -211,-256 -280,-413 -68,-157 -103,-327 -103,-511 0,-183 35,-353 103,-510 69,-158 162,-295 280,-413 118,-118 256,-211 413,-280 157,-69 327,-103 511,-103l5963 0c131,0 242,46 334,137 91,92 137,203 137,334 0,131 -46,243 -137,334 -92,92 -203,138 -334,138l-5983 0c-98,0 -185,34 -260,103 -76,69 -113,156 -113,260 0,99 37,184 113,256 75,72 162,108 260,108l5433 0c183,0 355,34 515,103 161,69 300,162 418,280 118,118 211,257 280,417 69,161 103,333 103,516 0,184 -34,354 -103,511 -69,157 -162,295 -280,413 -118,118 -257,209 -418,275 -160,65 -332,98 -515,98l-5954 0c-131,0 -242,-46 -334,-138 -91,-91 -137,-203 -137,-334 0,-131 46,-242 137,-334 92,-91 203,-137 334,-137l5993 0c98,0 183,-34 255,-103 72,-69 108,-153 108,-251 0,-105 -36,-193 -108,-265 -72,-72 -157,-108 -255,-108l-5452 0zm8644 -943l2270 0c340,0 674,-44 1002,-133 327,-88 647,-204 958,-349 311,-144 609,-307 894,-491 284,-183 558,-370 820,-560 111,-91 222,-137 334,-137 131,0 242,46 334,137 92,92 137,203 137,334 0,92 -26,172 -78,241 -53,69 -115,129 -187,182 -170,131 -334,254 -491,368 -157,115 -314,221 -472,319 -157,99 -319,194 -486,285 -167,92 -345,184 -535,275 190,92 368,184 535,275 167,92 329,187 486,285 158,99 315,205 472,320 157,114 321,237 491,368 72,52 134,113 187,182 52,69 78,149 78,240 0,131 -45,243 -137,334 -92,92 -203,138 -334,138 -112,0 -223,-46 -334,-138 -269,-196 -545,-386 -830,-569 -285,-184 -581,-347 -889,-492 -308,-144 -626,-258 -953,-343 -328,-85 -662,-128 -1002,-128l-2270 0 0 1198c0,131 -45,243 -137,334 -92,92 -200,138 -324,138 -131,0 -243,-46 -334,-138 -92,-91 -138,-203 -138,-334l0 -3340c0,-131 46,-242 138,-334 91,-91 200,-137 324,-137 131,0 242,46 334,137 92,92 137,203 137,334l0 1199zm10639 1552c0,-170 59,-314 177,-432 118,-118 262,-177 433,-177 170,0 314,59 432,177 118,118 177,262 177,432 0,170 -59,314 -177,432 -118,118 -262,177 -432,177 -171,0 -315,-59 -433,-177 -118,-118 -177,-262 -177,-432zm-2072 884c-99,118 -220,177 -364,177 -131,0 -242,-46 -334,-138 -91,-91 -137,-203 -137,-334 0,-117 32,-212 98,-284l2387 -3213c111,-150 259,-273 442,-368 184,-95 380,-143 590,-143 196,0 383,43 560,128 176,85 320,203 432,354l2387 3192c39,46 72,97 98,153 26,55 39,116 39,181 0,131 -45,243 -137,334 -92,92 -203,138 -334,138 -157,0 -282,-62 -373,-187l-2289 -3055c-46,-52 -103,-110 -172,-172 -69,-62 -139,-93 -211,-93 -72,0 -143,31 -212,93 -68,62 -122,120 -162,172l-2308 3065z"/>
   <path class="fil0" d="M14167 7748c-110,0 -198,26 -261,78 -64,53 -96,122 -96,209 0,86 39,155 117,206 78,51 258,111 540,181 282,69 501,173 657,312 156,139 234,342 234,608 0,267 -100,483 -300,649 -200,166 -463,249 -789,249 -470,0 -894,-175 -1271,-523l395 -485c321,281 617,421 889,421 122,0 218,-26 287,-79 70,-52 104,-123 104,-212 0,-90 -37,-161 -110,-213 -74,-53 -220,-106 -438,-160 -346,-82 -599,-189 -760,-321 -160,-132 -240,-338 -240,-621 0,-282 102,-499 304,-653 203,-153 456,-229 759,-229 199,0 397,34 596,102 198,68 371,164 519,289l-336 485c-258,-196 -525,-293 -800,-293zm5776 954c0,-265 -85,-491 -256,-678 -170,-187 -379,-281 -627,-281 -248,0 -457,94 -627,281 -170,187 -255,413 -255,678 0,265 85,491 255,677 170,185 379,278 627,278 248,0 457,-93 627,-278 171,-186 256,-412 256,-677zm225 1093c-300,294 -670,441 -1110,441 -440,0 -810,-147 -1110,-441 -301,-293 -451,-658 -451,-1095 0,-436 150,-802 451,-1095 300,-293 670,-440 1110,-440 440,0 810,147 1110,440 301,293 451,659 451,1095 0,437 -150,802 -451,1095zm4797 -2562l0 583 -1378 0 0 642 1310 0 0 582 -1310 0 0 1166 -663 0 0 -2973 2041 0zm3564 574l0 2399 -663 0 0 -2399 -843 0 0 -574 2348 0 0 574 -842 0zm3998 1136l527 -1710 694 0 523 1710 591 -1710 719 0 -1038 2973 -494 0 -650 -2067 -647 2067 -493 0 -1038 -2973 719 0 587 1710zm7111 1263l-277 -642 -1246 0 -276 642 -706 0 1284 -2973 642 0 1285 2973 -706 0zm-898 -2088l-374 863 744 0 -370 -863zm6103 102c0,476 -188,784 -565,923l752 1063 -816 0 -659 -949 -460 0 0 949 -663 0 0 -2973 1127 0c462,0 792,78 989,234 197,156 295,407 295,753zm-1263 463c227,0 381,-37 464,-110 82,-74 123,-191 123,-351 0,-161 -42,-270 -128,-330 -85,-59 -233,-89 -446,-89l-498 0 0 880 485 0zm5831 -1450l0 591 -1480 0 0 613 1331 0 0 565 -1331 0 0 617 1527 0 0 587 -2191 0 0 -2973 2144 0z"/>
  </g>
 </g>
</svg>
