<?xml version="1.0" encoding="UTF-8"?>
<!DOCTYPE svg PUBLIC "-//W3C//DTD SVG 1.1//EN" "http://www.w3.org/Graphics/SVG/1.1/DTD/svg11.dtd">
<!-- Creator: CorelDRAW X7 -->
<svg xmlns="http://www.w3.org/2000/svg" xml:space="preserve" width="899.79mm" height="459.27mm" version="1.1" style="shape-rendering:geometricPrecision; text-rendering:geometricPrecision; image-rendering:optimizeQuality; fill-rule:evenodd; clip-rule:evenodd"
viewBox="0 0 89979 45927"
 xmlns:xlink="http://www.w3.org/1999/xlink">
 <defs>
  <style type="text/css">
   <![CDATA[
    .fil0 {fill:#E7F4F9}
    .fil2 {fill:#008EC2;fill-opacity:0.050980}
    .fil1 {fill:#008EC2;fill-opacity:0.101961}
   ]]>
  </style>
 </defs>
 <g id="Layer_x0020_1">
  <metadata id="CorelCorpID_0Corel-Layer"/>
  <rect class="fil0" width="89979" height="45927"/>
  <path class="fil1" d="M18490 45927l-18490 0 0 -8300c1316,-348 2697,-534 4122,-534 6277,0 11713,3593 14368,8834l0 0z"/>
  <path class="fil2" d="M89979 38495l0 7432 -22859 0c3435,-5222 9346,-8670 16064,-8670 2393,0 4682,439 6795,1238l0 0z"/>
  <path class="fil2" d="M12281 45927l-12281 0 0 -26501c8890,0 16097,7207 16097,16097 0,3967 -1436,7598 -3816,10404z"/>
  <path class="fil1" d="M70765 0l19214 0 0 19214c-10611,0 -19214,-8602 -19214,-19214z"/>
 </g>
</svg>
